<svg xmlns="http://www.w3.org/2000/svg" style="display: none;">
  <symbol id="zoom" viewBox="0 0 24 24">
    <path fill-rule="evenodd" clip-rule="evenodd" d="M23.2 16.1C23.2 16.3387 23.2948 16.5676 23.4636 16.7364C23.6324 16.9052 23.8613 17 24.1 17C24.3387 17 24.5676 16.9052 24.7364 16.7364C24.9052 16.5676 25 16.3387 25 16.1V8.9C25 8.66131 24.9052 8.43239 24.7364 8.2636C24.5676 8.09482 24.3387 8 24.1 8H16.9C16.6613 8 16.4324 8.09482 16.2636 8.2636C16.0948 8.43239 16 8.66131 16 8.9C16 9.13869 16.0948 9.36761 16.2636 9.5364C16.4324 9.70518 16.6613 9.8 16.9 9.8H23.2V16.1ZM8.8 17.9C8.8 17.6613 8.70518 17.4324 8.5364 17.2636C8.36761 17.0948 8.13869 17 7.9 17C7.66131 17 7.43239 17.0948 7.2636 17.2636C7.09482 17.4324 7 17.6613 7 17.9V25.1C7 25.3387 7.09482 25.5676 7.2636 25.7364C7.43239 25.9052 7.66131 26 7.9 26H15.1C15.3387 26 15.5676 25.9052 15.7364 25.7364C15.9052 25.5676 16 25.3387 16 25.1C16 24.8613 15.9052 24.6324 15.7364 24.4636C15.5676 24.2948 15.3387 24.2 15.1 24.2H8.8V17.9Z" fill="#464646"/>
  </symbol>
  <symbol id="selected" viewBox="0 0 24 24">
   <path fill-rule="evenodd" clip-rule="evenodd" d="M14.0578 5.10889C14.1809 5.23213 14.25 5.3992 14.25 5.57339C14.25 5.74758 14.1809 5.91464 14.0578 6.03789L7.70378 12.3919C7.58053 12.515 7.41346 12.5841 7.23928 12.5841C7.06509 12.5841 6.89802 12.515 6.77478 12.3919L3.92642 9.54356C3.81031 9.41895 3.7471 9.25415 3.7501 9.08385C3.75311 8.91357 3.82209 8.7511 3.94253 8.63066C4.06296 8.51023 4.22544 8.44125 4.39572 8.43824C4.56601 8.43523 4.73081 8.49845 4.85542 8.61456L7.23928 10.9984L13.1288 5.10889C13.252 4.9858 13.4191 4.91666 13.5933 4.91666C13.7674 4.91666 13.9346 4.9858 14.0578 5.10889Z" fill="#32312F"/>
  </symbol>
  <symbol id="like" viewBox="0 0 24 24">
   <path d="M17.9411 5.10325C17.0869 4.17687 15.9149 3.66666 14.6407 3.66666C13.6883 3.66666 12.816 3.96778 12.0481 4.56159C11.6606 4.86129 11.3095 5.22803 11 5.656C10.6906 5.22813 10.3394 4.86129 9.95177 4.56159C9.18397 3.96778 8.31172 3.66666 7.35927 3.66666C6.08506 3.66666 4.91295 4.17687 4.05882 5.10325C3.2149 6.01881 2.75 7.26962 2.75 8.62539C2.75 10.0208 3.27004 11.2982 4.3865 12.6454C5.38526 13.8505 6.82073 15.0739 8.48304 16.4904C9.05068 16.9742 9.69408 17.5226 10.3621 18.1067C10.5387 18.2613 10.7653 18.3465 11 18.3464C11.2348 18.3464 11.4614 18.2613 11.6376 18.1069C12.3057 17.5227 12.9494 16.9741 13.5173 16.4901C15.1794 15.0737 16.6148 13.8505 17.6136 12.6453C18.7301 11.2982 19.25 10.0208 19.25 8.62526C19.25 7.26962 18.7851 6.01881 17.9411 5.10325Z" fill="#A1A5AD"/>
  </symbol>
</svg>